<svg xmlns="http://www.w3.org/2000/svg" xmlns:xlink="http://www.w3.org/1999/xlink" width="41" height="42.14" viewBox="0 0 41 42.14">
  <defs>
    <clipPath id="clip-path">
      <rect width="41" height="42.14" fill="none"/>
    </clipPath>
  </defs>
  <g id="Repeat_Grid_8" data-name="Repeat Grid 8" clip-path="url(#clip-path)">
    <g transform="translate(-873 -186)">
      <g id="Path_8" data-name="Path 8" transform="translate(873 186)" fill="none">
        <path d="M10,0H31A10,10,0,0,1,41,10V25A10,10,0,0,1,31,35s-2.275,7.14-3.956,7.14S24.278,35,24.278,35H10A10,10,0,0,1,0,25V10A10,10,0,0,1,10,0Z" stroke="none"/>
        <path d="M 10 2.000003814697266 C 5.588790893554688 2.000003814697266 2 5.588790893554688 2 10.00000381469727 L 2 25.00000190734863 C 2 29.41121292114258 5.588790893554688 33.00000381469727 10 33.00000381469727 L 24.27815055847168 33.00000381469727 L 25.99700927734375 33.00000381469727 L 26.25542068481445 34.69932174682617 C 26.25730133056641 34.71170425415039 26.44755935668945 35.95331192016602 26.7866096496582 37.36039352416992 C 26.9501781463623 38.03920364379883 27.10394668579102 38.57473754882813 27.24165725708008 38.99541473388672 C 27.47073936462402 38.55233764648438 27.74377822875977 37.96920776367188 28.05879974365234 37.20536422729492 C 28.66164970397949 35.74361419677734 29.09029006958008 34.40568161010742 29.09439086914063 34.3928337097168 L 29.53818130493164 33.00000381469727 L 31 33.00000381469727 C 35.41120910644531 33.00000381469727 39 29.41121292114258 39 25.00000190734863 L 39 10.00000381469727 C 39 5.588790893554688 35.41120910644531 2.000003814697266 31 2.000003814697266 L 10 2.000003814697266 M 10 3.814697265625e-06 L 31 3.814697265625e-06 C 36.52285003662109 3.814697265625e-06 41 4.477153778076172 41 10.00000381469727 L 41 25.00000190734863 C 41 30.52285385131836 36.52285003662109 35.00000381469727 31 35.00000381469727 C 31 35.00000381469727 28.72489929199219 42.14036178588867 27.04442977905273 42.14036178588867 C 25.36396980285645 42.14036178588867 24.27815055847168 35.00000381469727 24.27815055847168 35.00000381469727 L 10 35.00000381469727 C 4.477149963378906 35.00000381469727 0 30.52285385131836 0 25.00000190734863 L 0 10.00000381469727 C 0 4.477153778076172 4.477149963378906 3.814697265625e-06 10 3.814697265625e-06 Z" stroke="none" fill="#d1d1d1"/>
      </g>
      <line id="Line_36" data-name="Line 36" x2="18" transform="translate(884.5 197.5)" fill="none" stroke="#d1d1d1" stroke-width="1"/>
      <line id="Line_37" data-name="Line 37" x2="18" transform="translate(884.5 203.5)" fill="none" stroke="#d1d1d1" stroke-width="1"/>
      <line id="Line_38" data-name="Line 38" x2="18" transform="translate(884.5 209.5)" fill="none" stroke="#d1d1d1" stroke-width="1"/>
    </g>
  </g>
</svg>
